<?xml version="1.0" encoding="UTF-8"?>
<svg id="uuid-c78f3c25-10c6-4870-937b-860afcfee191" data-name="图层 1" xmlns="http://www.w3.org/2000/svg" viewBox="0 0 89 89">
  <defs>
    <style>
      .uuid-3c68de53-346c-4572-9d56-e176742a776c {
        fill: #001e36;
      }

      .uuid-c1b99bb6-db29-4666-920a-df8662c0506b {
        fill: #31a8ff;
      }
    </style>
  </defs>
  <rect class="uuid-3c68de53-346c-4572-9d56-e176742a776c" x="0" width="89" height="89" rx="14.53" ry="14.53"/>
  <g>
    <path class="uuid-c1b99bb6-db29-4666-920a-df8662c0506b" d="m18.04,22.06h14.41c8.96,0,16.39,3.24,16.39,13.36s-7.48,14.02-16.17,14.02h-4.78v13.58h-9.84V22.06Zm14.13,19.63c4.78,0,7.09-2.25,7.09-6.27s-2.64-5.55-7.37-5.55h-4.01v11.82h4.29Z"/>
    <path class="uuid-c1b99bb6-db29-4666-920a-df8662c0506b" d="m48.95,59.4l4.34-6.1c2.86,2.14,5.44,3.3,7.92,3.3s3.68-.93,3.68-2.47c0-1.87-3.02-2.75-6.21-4.01-3.74-1.49-7.97-4.01-7.97-9.24,0-5.88,4.78-9.9,12.1-9.9,4.89,0,8.52,1.98,11.16,4.01l-4.34,5.83c-2.25-1.59-4.45-2.64-6.49-2.64-2.25,0-3.3.77-3.3,2.25,0,1.87,2.69,2.58,5.94,3.74,3.9,1.48,8.25,3.74,8.25,9.4s-4.51,10.23-13.03,10.23c-4.07,0-8.85-1.76-12.04-4.4Z"/>
  </g>
</svg>