<?xml version="1.0" encoding="UTF-8"?>
<svg id="uuid-2b431a9d-88dd-44b4-a9e7-aa2fa5670a4c" data-name="图层 1" xmlns="http://www.w3.org/2000/svg" viewBox="0 0 89 89">
  <defs>
    <style>
      .uuid-8a1b1589-04fa-4471-860e-cd2719b0e322 {
        fill: #99f;
      }

      .uuid-be2274f1-e638-494d-a328-6ec0a11e59c4 {
        fill: #00005b;
      }
    </style>
  </defs>
  <rect class="uuid-be2274f1-e638-494d-a328-6ec0a11e59c4" width="89" height="89" rx="14.53" ry="14.53"/>
  <g>
    <path class="uuid-8a1b1589-04fa-4471-860e-cd2719b0e322" d="m20.04,22.06h14.41c8.96,0,16.39,3.24,16.39,13.36s-7.48,14.02-16.17,14.02h-4.78v13.58h-9.84V22.06Zm14.13,19.63c4.78,0,7.09-2.25,7.09-6.27s-2.64-5.55-7.37-5.55h-4.01v11.82h4.29Z"/>
    <path class="uuid-8a1b1589-04fa-4471-860e-cd2719b0e322" d="m53.75,31.73h7.97l.71,5.44h.17c2.31-4.18,5.77-6.21,8.91-6.21,1.87,0,2.91.27,3.79.66l-1.59,8.41c-1.15-.27-2.09-.49-3.46-.49-2.31,0-5.11,1.48-6.71,5.61v17.87h-9.79v-31.29Z"/>
  </g>
</svg>