<?xml version="1.0" encoding="UTF-8"?>
<svg id="uuid-a22f9506-da00-48c1-ae8a-b64a138df755" data-name="图层 1" xmlns="http://www.w3.org/2000/svg" viewBox="0 0 89 89">
  <defs>
    <style>
      .uuid-523ba722-3641-4755-8bca-469c503a753d {
        fill: #99f;
      }

      .uuid-93069d35-ba80-4e3f-a82e-f7290df5ebfb {
        fill: #00005b;
      }
    </style>
  </defs>
  <rect class="uuid-93069d35-ba80-4e3f-a82e-f7290df5ebfb" width="89" height="89" rx="14.53" ry="14.53"/>
  <g>
    <path class="uuid-523ba722-3641-4755-8bca-469c503a753d" d="m22.57,22.06h11.77l12.7,40.97h-10.34l-2.36-9.4h-12.1l-2.36,9.4h-10.01l12.7-40.97Zm1.54,23.98h8.36l-.88-3.46c-1.1-4.07-2.14-8.96-3.24-13.14h-.22c-.99,4.29-2.09,9.07-3.13,13.14l-.88,3.46Z"/>
    <path class="uuid-523ba722-3641-4755-8bca-469c503a753d" d="m49.14,51.09v-19.36h9.79v18.15c0,4.29,1.16,5.55,3.63,5.55,2.2,0,3.57-.88,5.22-3.19v-20.51h9.79v31.29h-7.97l-.71-4.29h-.22c-2.58,3.08-5.5,5.06-9.73,5.06-6.87,0-9.79-4.89-9.79-12.7Z"/>
  </g>
</svg>