<?xml version="1.0" encoding="UTF-8"?>
<svg id="uuid-7fe11de2-cf4e-403e-9832-892a906e3520" data-name="图层 1" xmlns="http://www.w3.org/2000/svg" viewBox="0 0 89 89">
  <defs>
    <style>
      .uuid-1acb4ec1-c607-43c9-97e9-059e06ca660d {
        fill: #99f;
      }

      .uuid-69ac7d1a-cbc7-46ad-bb81-3baf437fc8d8 {
        fill: #00005b;
      }
    </style>
  </defs>
  <rect class="uuid-69ac7d1a-cbc7-46ad-bb81-3baf437fc8d8" width="89" height="89" rx="14.53" ry="14.53"/>
  <g>
    <path class="uuid-1acb4ec1-c607-43c9-97e9-059e06ca660d" d="m12.9,22.06h10.31l6.3,17.71c.8,2.36,1.44,4.95,2.19,7.42h.27c.8-2.47,1.44-5.06,2.19-7.42l6.09-17.71h10.36v40.97h-8.71v-14.02c0-4.07.75-10.17,1.28-14.19h-.27l-3.31,9.79-5.34,14.96h-5.23l-5.4-14.96-3.21-9.79h-.21c.48,4.01,1.23,10.12,1.23,14.19v14.02h-8.55V22.06Z"/>
    <path class="uuid-1acb4ec1-c607-43c9-97e9-059e06ca660d" d="m54.63,47.35c0-10.12,7.1-16.39,14.42-16.39,8.76,0,13.03,6.54,13.03,15.07,0,1.76-.21,3.46-.43,4.23h-17.84c.85,4.29,3.74,6.05,7.59,6.05,2.19,0,4.22-.66,6.41-1.98l3.15,5.88c-3.15,2.31-7.32,3.57-10.84,3.57-8.76,0-15.49-6.05-15.49-16.44Zm19.39-3.52c0-3.08-1.34-5.39-4.81-5.39-2.62,0-4.91,1.7-5.56,5.39h10.36Z"/>
  </g>
</svg>