<?xml version="1.0" encoding="UTF-8"?>
<svg id="uuid-17846db7-447f-4699-bdc8-0fff9dd7ecfc" data-name="图层 1" xmlns="http://www.w3.org/2000/svg" viewBox="0 0 89 89">
  <defs>
    <style>
      .uuid-2a92b804-c772-40b6-bcc7-c47dff7b91d0 {
        fill: #99f;
      }

      .uuid-ad0e4159-0ca8-45ff-bc6d-25db3e32d1ee {
        fill: #00005b;
      }
    </style>
  </defs>
  <rect class="uuid-ad0e4159-0ca8-45ff-bc6d-25db3e32d1ee" width="89" height="89" rx="14.53" ry="14.53"/>
  <g>
    <path class="uuid-2a92b804-c772-40b6-bcc7-c47dff7b91d0" d="m22.57,22.06h11.77l12.7,40.97h-10.34l-2.36-9.4h-12.1l-2.36,9.4h-10.01l12.7-40.97Zm1.54,23.98h8.36l-.88-3.46c-1.1-4.07-2.14-8.96-3.24-13.14h-.22c-.99,4.29-2.09,9.07-3.13,13.14l-.88,3.46Z"/>
    <path class="uuid-2a92b804-c772-40b6-bcc7-c47dff7b91d0" d="m48.81,47.35c0-10.12,7.31-16.39,14.85-16.39,9.02,0,13.42,6.54,13.42,15.07,0,1.76-.22,3.46-.44,4.24h-18.37c.88,4.29,3.85,6.05,7.81,6.05,2.25,0,4.34-.66,6.6-1.98l3.24,5.88c-3.24,2.31-7.53,3.57-11.16,3.57-9.02,0-15.95-6.05-15.95-16.44Zm19.96-3.52c0-3.08-1.38-5.39-4.95-5.39-2.69,0-5.06,1.71-5.72,5.39h10.67Z"/>
  </g>
</svg>