<svg width="1em" height="1em" viewBox="0 0 82 22" preserveAspectRatio="xMidYMid meet" fill="" role="presentation" xmlns="http://www.w3.org/2000/svg" class="official_logo"><g><path d="M26.71 4.47V.19l-5 2.71v-.16A2.65 2.65 0 0 0 18.79 0H2.91A2.61 2.61 0 0 0 0 2.74v4.31l7 3.73-7 3.77v4.31a2.6 2.6 0 0 0 2.91 2.71h15.88a2.64 2.64 0 0 0 2.91-2.71v-.22l5 2.73V17l-11.64-6.22ZM11 12.91l8.61 4.63H2.38ZM19.57 4 11 8.63 2.38 4Zm54.88 8.22V3.68h1.67v8.54Zm-4.56 0V3.68h1.67v8.54Zm6.67 9.35h3.54l-3.5-5.64h-3.55ZM60.73 9.45V3.68h1.66v5.77Zm-2.9 10.92h7.49V1.19h-7.49Zm2.9-2.48V12h1.66v5.92Zm-9.47-3.61h2.93V4.94h-2.93ZM33.65 3.68h20.88V1.19h-4.6L50.85 0h-3.58l-.88 1.19h-4.6L40.91 0h-3.58l.92 1.19h-4.6Zm13.22 10.6h2.89V4.94h-2.89ZM37 8.12V6.76h5.45v1.36Zm-2.9 6.16H37v-1.19h5.45v1.19h2.9V4.94H34.1Zm2.92-3V9.94h5.45v1.37ZM35 21.57h3.27L39.54 18h10.94l-.82 3.61H53l1.4-6.1H33.65V18h2.59Zm30.92 0h3.54l4.12-6.87h6.2v-2.48h-.68v-11h-4.65V0h-2.89v1.19h-4.64v11h-.68v2.51H70Z" data-follow-fill="#010102" fill="#010102"></path></g></svg>