<?xml version="1.0" encoding="UTF-8"?>
<svg id="uuid-7c28b4fd-02a0-49e1-b81d-7ab634ca7dd2" data-name="uuid-2b431a9d-88dd-44b4-a9e7-aa2fa5670a4c" xmlns="http://www.w3.org/2000/svg" viewBox="0 0 89 89">
  <defs>
    <style>
      .uuid-4509d57a-9ec7-4eb5-93cb-01421daa0152 {
        fill: #fff;
      }

      .uuid-be34ebe1-8941-40ef-a02e-94f35455b86d {
        fill: #010101;
      }
    </style>
  </defs>
  <rect class="uuid-be34ebe1-8941-40ef-a02e-94f35455b86d" width="89" height="89" rx="14.53" ry="14.53"/>
  <path class="uuid-4509d57a-9ec7-4eb5-93cb-01421daa0152" d="m71.73,31.62v-8.73l-10.19,5.53v-.33c.12-2.98-2.21-5.49-5.19-5.61-.26-.01-.51,0-.77.02H23.21c-2.92-.34-5.56,1.75-5.91,4.66-.04.31-.05.61-.03.92v8.79l14.27,7.6-14.27,7.69v8.79c-.15,2.92,2.11,5.41,5.03,5.56.3.01.6,0,.9-.03h32.38c2.96.31,5.6-1.84,5.91-4.8.02-.24.03-.48.03-.72v-.45l10.19,5.57v-8.91l-23.73-12.68,23.75-12.86Zm-32.03,17.21l17.55,9.44H22.13l17.57-9.44Zm17.47-18.17l-17.47,9.44-17.57-9.44h35.05Z"/>
</svg>