<?xml version="1.0" encoding="utf-8"?>
<!-- Generator: $$$/GeneralStr/196=Adobe Illustrator 27.6.0, SVG Export Plug-In . SVG Version: 6.00 Build 0)  -->
<svg version="1.1"
	 id="svg2" xmlns:cc="http://creativecommons.org/ns#" xmlns:dc="http://purl.org/dc/elements/1.1/" xmlns:svg="http://www.w3.org/2000/svg" xmlns:rdf="http://www.w3.org/1999/02/22-rdf-syntax-ns#"
	 xmlns="http://www.w3.org/2000/svg" xmlns:xlink="http://www.w3.org/1999/xlink" x="0px" y="0px" viewBox="0 0 255.1 144"
	 style="enable-background:new 0 0 255.1 144;" xml:space="preserve">
<style type="text/css">
	.st0{fill:#394D54;}
	.st1{clip-path:url(#SVGID_00000003822697272810347900000013813510440821357961_);}
	.st2{fill:#00ACD3;}
	.st3{fill:#20C2EF;}
	.st4{stroke:#394D54;stroke-width:1.56;}
	.st5{clip-path:url(#SVGID_00000044893824888720048730000010398542533340800152_);fill:#17B5EB;}
	.st6{clip-path:url(#SVGID_00000081616442503961083800000010966581294242255249_);fill-opacity:0.17;}
	.st7{clip-path:url(#SVGID_00000121257666293515020480000017532515665326610841_);fill:#D4EDF1;}
	.st8{clip-path:url(#SVGID_00000016791857374427241670000014959440966666054303_);fill-opacity:8.500000e-02;}
	.st9{fill:none;stroke:#394D54;stroke-width:3.4;stroke-linecap:round;}
	.st10{fill:#D4EDF1;}
</style>
<path id="path14" class="st0" d="M147.5,43.7h22.9v23.4h11.6c5.3,0,10.8-1,15.9-2.7c2.5-0.8,5.3-2,7.7-3.5
	c-3.2-4.2-4.9-9.5-5.4-14.8c-0.7-7.1,0.8-16.4,5.6-22l2.4-2.8l2.9,2.3c7.2,5.8,13.3,13.9,14.3,23.1c8.7-2.6,18.9-2,26.5,2.5l3.1,1.8
	l-1.7,3.2c-6.5,12.6-20,16.5-33.2,15.9c-19.8,49.3-62.9,72.7-115.2,72.7c-27,0-51.8-10.1-65.9-34c-0.8-1.5-1.5-3-2.3-4.6
	c-4.8-10.5-6.4-22.1-5.3-33.6l0.3-3.5h19.6V43.7h22.9V20.9H120V-2h27.4L147.5,43.7"/>
<g>
	<defs>
		<path id="SVGID_1_" d="M76,0v46H54v23H35.6c-0.1,0.7-0.1,1.3-0.2,2c-1.2,12.5,1,24.1,6.1,34l1.7,3c1,1.8,2.2,3.5,3.4,5.2
			c1.2,1.7,1.7,2.6,2.5,3.7c13.3,14.9,33.1,22.1,56,22.1c50.6,0,93.6-22.4,112.7-72.8c13.5,1.4,26.4-2.1,32.3-13.6
			c-9.4-5.4-21.5-3.7-28.4-0.2L240,0l-72,46h-23V0H76z"/>
	</defs>
	<clipPath id="SVGID_00000155834640318612429820000001747424794276224157_">
		<use xlink:href="#SVGID_1_"  style="overflow:visible;"/>
	</clipPath>
	<g id="g16" style="clip-path:url(#SVGID_00000155834640318612429820000001747424794276224157_);">
		<g id="g18">
			<g id="g20" transform="translate(0,-22.866)">
				<path id="path22" class="st2" d="M123.9,1.8h19.8v19.8h-19.8L123.9,1.8z"/>
				<path id="path24" class="st3" d="M123.9,24.7h19.8v19.8h-19.8L123.9,24.7z"/>
				<path id="path26" class="st4" d="M126.3,20V3.5 M129.3,20V3.5 M132.3,20V3.5 M135.3,20V3.5 M138.3,20V3.5 M141.2,20V3.5"/>
				<g id="use28" transform="translate(0,22.866)">
					<path id="path26_00000151519416622957618590000018108545040151558789_" class="st4" d="M126.3,42.8V26.3 M129.3,42.8V26.3
						 M132.3,42.8V26.3 M135.3,42.8V26.3 M138.3,42.8V26.3 M141.2,42.8V26.3"/>
				</g>
			</g>
			<g id="use30" transform="matrix(1,0,0,-1,22.866,4.572651)">
				<g id="g20_00000065754757044483068580000000468440745016570752_" transform="translate(0,-22.866)">
					<path id="path22_00000052100841989538440410000007005195416771379094_" class="st2" d="M146.7,44.5h19.8V24.7h-19.8V44.5z"/>
					<path id="path24_00000079466027288984601540000012620295987165292424_" class="st3" d="M146.7,21.6h19.8V1.8h-19.8V21.6z"/>
					<path id="path26_00000126300214644108469810000009177185928629813643_" class="st4" d="M149.2,26.3v16.5 M152.1,26.3v16.5
						 M155.1,26.3v16.5 M158.1,26.3v16.5 M161.1,26.3v16.5 M164.1,26.3v16.5"/>
					<g id="use28_00000016045054525002857660000003621099450487309724_" transform="translate(0,22.866)">
						<path id="path26_00000121989686256737785630000015525068468452687527_" class="st4" d="M149.2,3.5V20 M152.1,3.5V20
							 M155.1,3.5V20 M158.1,3.5V20 M161.1,3.5V20 M164.1,3.5V20"/>
					</g>
				</g>
			</g>
		</g>
		<g id="use32" transform="translate(-91.464,45.732)">
			<g id="g18_00000067953038625559031800000001488359492192914865_">
				<g id="g20_00000155145888093619911310000016393929013352249275_" transform="translate(0,-22.866)">
					<path id="path22_00000147194951347549866670000005673773882236987012_" class="st2" d="M32.4,47.5h19.8v19.8H32.4L32.4,47.5z"
						/>
					<path id="path24_00000002346958199901610420000005962416566335701122_" class="st3" d="M32.4,70.4h19.8v19.8H32.4L32.4,70.4z"
						/>
					<path id="path26_00000011734525471684323070000009778655581092787135_" class="st4" d="M34.8,65.7V49.2 M37.8,65.7V49.2
						 M40.8,65.7V49.2 M43.8,65.7V49.2 M46.8,65.7V49.2 M49.8,65.7V49.2"/>
					<g id="use28_00000106838799606165151190000007175398968936179331_" transform="translate(0,22.866)">
						<path id="path26_00000130646477010058657740000004295384388019595140_" class="st4" d="M34.8,88.6V72.1 M37.8,88.6V72.1
							 M40.8,88.6V72.1 M43.8,88.6V72.1 M46.8,88.6V72.1 M49.8,88.6V72.1"/>
					</g>
				</g>
				<g id="use30_00000003092270848933264520000002561446167147880106_" transform="matrix(1,0,0,-1,22.866,4.572651)">
					<g id="g20_00000094607482366547830970000009295888519140115854_" transform="translate(0,-22.866)">
						<path id="path22_00000149359689604816194300000001370671071105220776_" class="st2" d="M55.3,90.2h19.8V70.4H55.3L55.3,90.2z"
							/>
						<path id="path24_00000047738508116871531600000010463682180465638034_" class="st3" d="M55.3,67.4h19.8V47.5H55.3L55.3,67.4z"
							/>
						<path id="path26_00000042008600793230527870000000271997040456724888_" class="st4" d="M57.7,72.1v16.5 M60.7,72.1v16.5
							 M63.7,72.1v16.5 M66.7,72.1v16.5 M69.7,72.1v16.5 M72.6,72.1v16.5"/>
						<g id="use28_00000103246014732667439450000016746852591257146027_" transform="translate(0,22.866)">
							<path id="path26_00000131346638550546660530000005110006501778070944_" class="st4" d="M57.7,49.2v16.5 M60.7,49.2v16.5
								 M63.7,49.2v16.5 M66.7,49.2v16.5 M69.7,49.2v16.5 M72.6,49.2v16.5"/>
						</g>
					</g>
				</g>
			</g>
		</g>
		<g id="use34" transform="translate(-45.732,45.732)">
			<g id="g18_00000073706299523430385680000009330854385758541959_">
				<g id="g20_00000155846389894348435510000007661126026710267019_" transform="translate(0,-22.866)">
					<path id="path22_00000027583649539508000290000005417713892469251755_" class="st2" d="M78.1,47.5h19.8v19.8H78.1L78.1,47.5z"
						/>
					<path id="path24_00000072990089727581487660000010037129183332844962_" class="st3" d="M78.1,70.4h19.8v19.8H78.1L78.1,70.4z"
						/>
					<path id="path26_00000078025254906975357490000015743626659969664653_" class="st4" d="M80.6,65.7V49.2 M83.5,65.7V49.2
						 M86.5,65.7V49.2 M89.5,65.7V49.2 M92.5,65.7V49.2 M95.5,65.7V49.2"/>
					<g id="use28_00000034812398143829900040000018197342751950742431_" transform="translate(0,22.866)">
						<path id="path26_00000049197628970591921750000015590816874537777322_" class="st4" d="M80.6,88.6V72.1 M83.5,88.6V72.1
							 M86.5,88.6V72.1 M89.5,88.6V72.1 M92.5,88.6V72.1 M95.5,88.6V72.1"/>
					</g>
				</g>
				<g id="use30_00000100352602404852688030000014003956897004532644_" transform="matrix(1,0,0,-1,22.866,4.572651)">
					<g id="g20_00000028322630557658529160000012045606183847127435_" transform="translate(0,-22.866)">
						<path id="path22_00000040576537546993274460000007634420561808879744_" class="st2" d="M101,90.2h19.8V70.4H101L101,90.2z"/>
						<path id="path24_00000000208017903665406600000015084007058050721434_" class="st3" d="M101,67.4h19.8V47.5H101L101,67.4z"/>
						<path id="path26_00000034792161216074685590000002741883524352463014_" class="st4" d="M103.4,72.1v16.5 M106.4,72.1v16.5
							 M109.4,72.1v16.5 M112.4,72.1v16.5 M115.4,72.1v16.5 M118.4,72.1v16.5"/>
						<g id="use28_00000024715368794465227630000004794548682913697183_" transform="translate(0,22.866)">
							<path id="path26_00000003072653001984642920000000128233697116282549_" class="st4" d="M103.4,49.2v16.5 M106.4,49.2v16.5
								 M109.4,49.2v16.5 M112.4,49.2v16.5 M115.4,49.2v16.5 M118.4,49.2v16.5"/>
						</g>
					</g>
				</g>
			</g>
		</g>
		<g id="use36" transform="translate(0,45.732)">
			<g id="g18_00000155121804525654593100000007065382577076912034_">
				<g id="g20_00000155129316808502183960000013281608504201774774_" transform="translate(0,-22.866)">
					<path id="path22_00000093163237696782086370000004291629116244214666_" class="st2" d="M123.9,47.5h19.8v19.8h-19.8L123.9,47.5
						z"/>
					<path id="path24_00000014594679615983316280000005251939233229165702_" class="st3" d="M123.9,70.4h19.8v19.8h-19.8L123.9,70.4
						z"/>
					<path id="path26_00000098915234042890889190000018283390915630576035_" class="st4" d="M126.3,65.7V49.2 M129.3,65.7V49.2
						 M132.3,65.7V49.2 M135.3,65.7V49.2 M138.3,65.7V49.2 M141.2,65.7V49.2"/>
					<g id="use28_00000078021531730801010700000003999046128082760630_" transform="translate(0,22.866)">
						<path id="path26_00000106112825172577492750000009992808741121596076_" class="st4" d="M126.3,88.6V72.1 M129.3,88.6V72.1
							 M132.3,88.6V72.1 M135.3,88.6V72.1 M138.3,88.6V72.1 M141.2,88.6V72.1"/>
					</g>
				</g>
				<g id="use30_00000139269492227702070190000006090780598876244613_" transform="matrix(1,0,0,-1,22.866,4.572651)">
					<g id="g20_00000079478557636451360070000006960036049345109646_" transform="translate(0,-22.866)">
						<path id="path22_00000113311296885608463500000005885524141262114726_" class="st2" d="M146.7,90.2h19.8V70.4h-19.8V90.2z"/>
						<path id="path24_00000155850305975379633310000014136654849420903858_" class="st3" d="M146.7,67.4h19.8V47.5h-19.8V67.4z"/>
						<path id="path26_00000113353046295536189870000003144076035387691152_" class="st4" d="M149.2,72.1v16.5 M152.1,72.1v16.5
							 M155.1,72.1v16.5 M158.1,72.1v16.5 M161.1,72.1v16.5 M164.1,72.1v16.5"/>
						<g id="use28_00000033331169687500494520000007170039327413066389_" transform="translate(0,22.866)">
							<path id="path26_00000023982956496998921280000012979636973582124711_" class="st4" d="M149.2,49.2v16.5 M152.1,49.2v16.5
								 M155.1,49.2v16.5 M158.1,49.2v16.5 M161.1,49.2v16.5 M164.1,49.2v16.5"/>
						</g>
					</g>
				</g>
			</g>
		</g>
	</g>
</g>
<g>
	<defs>
		<path id="SVGID_00000117674784606778110830000003056109505575017127_" d="M76,0v46H54v23H35.6c-0.1,0.7-0.1,1.3-0.2,2
			c-1.2,12.5,1,24.1,6.1,34l1.7,3c1,1.8,2.2,3.5,3.4,5.2c1.2,1.7,1.7,2.6,2.5,3.7c13.3,14.9,33.1,22.1,56,22.1
			c50.6,0,93.6-22.4,112.7-72.8c13.5,1.4,26.4-2.1,32.3-13.6c-9.4-5.4-21.5-3.7-28.4-0.2L240,0l-72,46h-23V0H76z"/>
	</defs>
	<clipPath id="SVGID_00000052801395526750361610000007597864493633901467_">
		<use xlink:href="#SVGID_00000117674784606778110830000003056109505575017127_"  style="overflow:visible;"/>
	</clipPath>
	<path id="path38" style="clip-path:url(#SVGID_00000052801395526750361610000007597864493633901467_);fill:#17B5EB;" d="
		M221.6,52.4c1.5-11.9-7.4-21.3-12.9-25.7c-6.4,7.4-7.4,26.7,2.6,34.8c-5.6,5-17.3,9.4-29.4,9.4H34c-1.2,12.6,0,73.1,0,73.1h217
		l-1-91.4C240.6,47.2,228.5,48.9,221.6,52.4"/>
</g>
<g>
	<defs>
		<path id="SVGID_00000109004571036630352930000009450825680581808525_" d="M76,0v46H54v23H35.6c-0.1,0.7-0.1,1.3-0.2,2
			c-1.2,12.5,1,24.1,6.1,34l1.7,3c1,1.8,2.2,3.5,3.4,5.2c1.2,1.7,1.7,2.6,2.5,3.7c13.3,14.9,33.1,22.1,56,22.1
			c50.6,0,93.6-22.4,112.7-72.8c13.5,1.4,26.4-2.1,32.3-13.6c-9.4-5.4-21.5-3.7-28.4-0.2L240,0l-72,46h-23V0H76z"/>
	</defs>
	<clipPath id="SVGID_00000160179673823672226960000017437968703629129146_">
		<use xlink:href="#SVGID_00000109004571036630352930000009450825680581808525_"  style="overflow:visible;"/>
	</clipPath>
	<path id="path40" style="clip-path:url(#SVGID_00000160179673823672226960000017437968703629129146_);fill-opacity:0.17;" d="
		M34,87v57h217V87"/>
</g>
<g>
	<defs>
		<path id="SVGID_00000052808464764814505400000002324709135677775537_" d="M76,0v46H54v23H35.6c-0.1,0.7-0.1,1.3-0.2,2
			c-1.2,12.5,1,24.1,6.1,34l1.7,3c1,1.8,2.2,3.5,3.4,5.2c1.2,1.7,1.7,2.6,2.5,3.7c13.3,14.9,33.1,22.1,56,22.1
			c50.6,0,93.6-22.4,112.7-72.8c13.5,1.4,26.4-2.1,32.3-13.6c-9.4-5.4-21.5-3.7-28.4-0.2L240,0l-72,46h-23V0H76z"/>
	</defs>
	<clipPath id="SVGID_00000167355129915522021630000003847306698490185617_">
		<use xlink:href="#SVGID_00000052808464764814505400000002324709135677775537_"  style="overflow:visible;"/>
	</clipPath>
	<path id="path42" style="clip-path:url(#SVGID_00000167355129915522021630000003847306698490185617_);fill:#D4EDF1;" d="
		M111.2,138.9c-13.5-6.4-21-15.2-25.1-24.7L45,116l21,28L111.2,138.9"/>
</g>
<g>
	<defs>
		<path id="SVGID_00000106120617504643426440000002423896459739660701_" d="M76,0v46H54v23H35.6c-0.1,0.7-0.1,1.3-0.2,2
			c-1.2,12.5,1,24.1,6.1,34l1.7,3c1,1.8,2.2,3.5,3.4,5.2c1.2,1.7,1.7,2.6,2.5,3.7c13.3,14.9,33.1,22.1,56,22.1
			c50.6,0,93.6-22.4,112.7-72.8c13.5,1.4,26.4-2.1,32.3-13.6c-9.4-5.4-21.5-3.7-28.4-0.2L240,0l-72,46h-23V0H76z"/>
	</defs>
	<clipPath id="SVGID_00000021820858814595070280000012596234454833023891_">
		<use xlink:href="#SVGID_00000106120617504643426440000002423896459739660701_"  style="overflow:visible;"/>
	</clipPath>
	
		<path id="path44" style="clip-path:url(#SVGID_00000021820858814595070280000012596234454833023891_);fill-opacity:8.500000e-02;" d="
		M222.5,51.9L222.5,51.9c-20.9,26.9-50.8,50.4-82.9,62.8c-28.7,11-53.6,11.1-70.9,2.2c-1.9-1-3.7-2.2-5.5-3.3
		c-12.6-8.8-19.8-23.4-19.2-42.7H34V144h217V48h-25L222.5,51.9z"/>
</g>
<path id="path46" class="st9" d="M45.6,115c14.2,0.8,29.3,0.9,42.5-3.2"/>
<path id="path48" class="st10" d="M102.2,105c0,3-2.4,5.5-5.5,5.5c-3,0-5.5-2.4-5.5-5.5c0-3,2.4-5.5,5.5-5.5
	C99.7,99.5,102.2,101.9,102.2,105z"/>
<path id="path50" class="st0" d="M98.1,101.3c-0.5,0.3-0.8,0.8-0.8,1.4c0,0.9,0.7,1.6,1.6,1.6c0.6,0,1.1-0.3,1.4-0.8
	c0.2,0.5,0.3,1,0.3,1.5c0,2.2-1.8,3.9-3.9,3.9c-2.2,0-3.9-1.8-3.9-3.9c0-2.2,1.8-3.9,3.9-3.9C97.2,101,97.7,101.1,98.1,101.3z"/>
<path id="path52" class="st0" d="M0,88.2h254.3c-5.5-1.4-17.5-3.3-15.5-10.6c-10.1,11.7-34.4,8.2-40.5,2.4
	c-6.8,9.9-46.6,6.1-49.3-1.6c-8.6,10-35.1,10-43.6,0C102.6,86.2,62.9,89.9,56,80c-6.1,5.7-30.4,9.2-40.5-2.4
	C17.5,84.9,5.5,86.8,0,88.2"/>
</svg>
