<?xml version="1.0" encoding="utf-8"?>
<!-- Generator: $$$/GeneralStr/196=Adobe Illustrator 27.6.0, SVG Export Plug-In . SVG Version: 6.00 Build 0)  -->
<svg version="1.1" id="图层_1" xmlns="http://www.w3.org/2000/svg" xmlns:xlink="http://www.w3.org/1999/xlink" x="0px" y="0px"
	 viewBox="0 0 155.8 150" style="enable-background:new 0 0 155.8 150;" xml:space="preserve">
<style type="text/css">
	.st0{fill:#E24329;}
	.st1{fill:#FC6D26;}
	.st2{fill:#FCA326;}
</style>
<path class="st0" d="M153.2,59.4l-0.2-0.6L131.8,3.5c-0.4-1.1-1.2-2-2.2-2.6c-2.6-1.7-6.1-0.9-7.7,1.7c-0.3,0.5-0.5,1-0.7,1.5
	l-14.3,43.8H48.9L34.6,4.1c-0.8-3-3.9-4.7-6.9-3.9c-0.5,0.1-1,0.4-1.5,0.7c-1,0.6-1.8,1.5-2.2,2.6L2.8,58.8l-0.2,0.6
	c-6.3,16.4-0.9,34.9,13.1,45.5l0.1,0.1l0.2,0.1l32.2,24.2l16,12.1l9.7,7.4c2.3,1.8,5.6,1.8,7.9,0l9.7-7.4l16-12.1l32.5-24.3l0.1-0.1
	C154.1,94.3,159.4,75.8,153.2,59.4z"/>
<path class="st1" d="M153.2,59.4l-0.2-0.6c-10.3,2.1-20.1,6.5-28.5,12.8l-46.6,35.2l29.6,22.4l32.5-24.3l0.1-0.1
	C154.1,94.3,159.4,75.7,153.2,59.4z"/>
<path class="st2" d="M48.2,129.2l16,12.1l9.7,7.4c2.3,1.8,5.6,1.8,7.9,0l9.7-7.4l16-12.1l-29.6-22.4L48.2,129.2z"/>
<path class="st1" d="M31.3,71.6c-8.4-6.3-18.2-10.7-28.5-12.8l-0.2,0.6c-6.3,16.4-0.9,34.9,13.1,45.5l0.1,0.1l0.2,0.1l32.3,24.2
	l29.7-22.4L31.3,71.6z"/>
</svg>
