<?xml version="1.0" encoding="UTF-8"?>
<svg id="uuid-b330b373-1113-4532-8f93-a0af43ffb4a6" data-name="图层 1" xmlns="http://www.w3.org/2000/svg" viewBox="0 0 111.14 130.7">
  <defs>
    <style>
      .uuid-120a2f5d-4a84-4e0c-9764-3f176f223ad0 {
        fill: #323333;
        fill-rule: evenodd;
      }
    </style>
  </defs>
  <path class="uuid-120a2f5d-4a84-4e0c-9764-3f176f223ad0" d="m38.59,111.28c4.68-.48,5.29-5.43,3.09-7.59-1.81-1.78-11.82-9.21-14.44-12.13-1.21-1.36-2.86-2.02-3.55-3.55-1.6-3.51-2.72-8.51-.69-12.1.37-.65.6-.36.32.99-1.59,7.67,3.4,13.93,4.5,10.72.76-2.22.06-6.19.46-9.34.72-5.58,5.8-16.29,8.03-16.9-3.44-6.37,4.03-11.36,3.94-16.95-.06-3.64,3.19,4.47,6.46,6.19,3.65,1.92,7.67-3.62,13.36-6.43,1.61-.79,3.68-1.71,3.54-2.39-.67-3.27-7.48,4.03-13.57,4.28-2.78.11-3.81-.55-4.88-1.58-3.24-3.14.33-.52,5.15-1.39,2.14-.39,2.86-.75,5.14-1.66,2.27-.92,4.87-2.28,7.45-2.98,1.79-.49,1.64-1.83.95-2.24-.4-.23-1-.21-1.47.6-1.1,1.91-6.3,3.01-7.92,3.51-2.08.64-4.38,1.23-7.44,1.11-4.65-.19-3.56-2.32-6.89-4.22-.97-.56-.71-2.03.58-3.32.68-.68,2.54-1.06,3.46-2.61.13-.22,1.32-1.46,2.25-2.1.32-.22.35-5.9-2.56-6.01-2.47-.1-3.18,1.82-3.07,3.73.1,1.91,1.12,3.48,1.79,3.48,1.3-.01.08,1.42-.63,1.65-1.08.35-2.56-4.25-2.39-6.46.18-2.3,1.38-6.38,4.29-6.3,2.62.07,4.52,3.36,4.43,9.03-.02.96,4.25-.46,5.68,1.05,1.02,1.08-3.49-10.05,6.55-10.82,2.65.51,5.19,1.39,6.24,7.47-.39.63.66,4.88-.97,5.38-1.99.61-3.22-.09-2.07-1.99.79-1.91.02-6.76-4.02-6.47-4.03.29-3.5,7.45-2.39,7.59,1.11.14,3.89,2.12,5.84,2.5,6.38,1.24,1.69,4.9,2.52,9.33.94,5,4.23,3.68,7.19,16.93.62.81,3.07,1.57,5.46,11.75,2.15,9.16-.89,15.81,4.27,15.27,1.16-.12,2.87-.45,3.61-3.04,1.93-6.78-.97-14.86-3.9-20.31-1.71-3.18-3.32-5.34-4.16-6.09,3.36,1.99,7.65,8.33,8.65,13.04,1.3,6.19,2.23,8.8.26,15.34,1.14.57,3.97,1.77,3.97,3.12-2.95-2.42-11.97-2.85-12.2,2.94-1.54.03-2.7.16-3.69,1.33-3.63,4.3-.26,12.94-.63,17.58-.32,4.08-1.45,8.12-2.09,12.22-2.16-.08-1.95-1.66-1.26-3.88.61-1.96,1.6-4.41,1.66-6.76.06-2.13-.17-3.46-.71-3.79-.54-.33-1.38.34-2.54,2.21-2.48,3.99-7.84,5.74-12.85,6.37-5.01.63-9.67.13-12.13-2.63-.84-.94-2.24.26-2.41.51-.22.34.82.99,1.6,2.43,1.14,2.1,2.23,5.28-.48,6.73.03-7.39-2.31-7.82-4.7-12.33h0Zm-1.79-.2c1.8,2.83,8.12,14.72-2.97,16.27-3.71.52-9.68-2.16-15.47-3.57-5.2-1.27-10.48-2.02-13.43-2.85-1.78-.5-2.52-1.14-2.68-1.88-.41-1.97,2.16-4.75,2.29-7.08.13-2.34-.85-3.55-1.66-5.46-.81-1.91-1.02-3.34-.37-4.16.5-.64,1.52-.9,3.18-.74,2.1.21,4.64-.22,6.01-1.06,2.3-1.4,3.38-4.28,2.35-7.74,0,3.39-1.11,4.67-3.9,6.22-2.62,1.46-6.68.28-8.54,1.89-2.24,1.94.8,6.96.55,10.65-.19,2.83-3.15,6.02-1.83,8.86,1.33,2.86,7.51,3.17,13.95,4.52,9.16,1.92,14.5,5.25,18.74,5.41,6.18.23,7.12-6.11,16.82-6.2,2.83-.15,5.59-.24,8.36-.27,3.13-.04,6.26-.01,9.47.06,6.45.16,4.23,3.52,8.42,5.67,3.53,1.81,9.88,1.1,11.4-.35,2.06-1.96,7.58-6.68,11.8-8.81,5.27-2.66,17.65-7.23,8.66-12.81-2.09-1.3-7.05-2.67-7.46-12.18-1.87,1.67-1.66,10.52,3.57,12.28,5.85,1.96,9.5,5.25-1.37,8.97-7.19,2.46-8.42,3.22-14.11,7.96-5.76,4.8-14.31,2.89-12.82-7.21.78-5.26,1.23-9.61-.08-14.18-.64-2.23-.96-5.1-.52-7.11.85-3.91,2.97-5.08,5.04-1.33,1.3,2.36,1.76,5.11,6.42,5.33,7.32.35,8.77-7.07,11.11-7.41,1.56-.23,3.12-4.64,1.93-11.79-1.27-7.65-5.77-19.73-11.55-25.85-4.8-5.09-7.82-9.55-9.72-15.92-1.6-5.35-2.49-10.56-2.16-15.54.43-6.45-3.15-15.43-8.85-19.66C63.82,1.36,58.23-.05,53.17,0c-2.84.03-5.51.45-7.56,1.56-8.45,4.59-9.63,11.14-9.5,18.62.12,7.02.36,15.04,1.16,22.67-.94,3.5-5.86,10.14-9.01,14.18-4.24,4.18-6.37,12.27-9.11,19.33-1.46,3.77-3.92,5.47-4.13,10.31-.06,1.35-.01,4.86,1.28,3.86,4.95-3.83,11.15,5.83,20.51,20.57h0ZM62.5,9.83c-.27.8-1.37,1.46-.67,2.02.7.56,1.1-.78,2.5-1.28.36-.13,2.05.05,2.36-.75.14-.35-.87-.75-1.47-1.32-.6-.57-1.19-1.08-1.75-1.05-1.45.09-.74,1.67-.98,2.38h0Zm8.61,29.13c.52-.55.79.95,2.2,1.83,1.11.7,2.2.18,2.48,1.61.2,1.02-.44,2.13-1.29,1.99-1.49-.25-4.93-3.8-3.39-5.43h0Zm-23.23-8.99c-2.32-.17-2.48,1.5-1.71,1.47.78-.03.3-1.33,1.71-1.47h0Zm-3.97-4.28c.27-.06.66.41.54,1.06-.17.91-.1,1.48.53,1.48.1,0,.22-.02.26-.26.3-1.81-.64-3.14-1.02-3.23-.89-.23-.78,1.05-.31.95h0Zm16.86-.77c.59.17,1.15,1.19,1.28,2.29.01.1.77-.16.77-.4.05-1.77-1.46-2.6-1.86-2.56-.91.08-.65.53-.19.67h0Zm-8.64,5.26c2.11-.98,2.84.54,2.12.78-.74.25-.75-1.13-2.12-.78h0Zm-25.44,35.89c-1-.12.29-.87.83-1.81.6-1.04.48-2.33,1.11-2.14.63.19.28.91-.15,2.1-.37,1.01-1.43,1.89-1.8,1.85h0Z"/>
</svg>