<svg width="164" height="164" viewBox="0 0 164 164" fill="none" xmlns="http://www.w3.org/2000/svg">
<path d="M127.54 0H36.4605C16.3239 0 0 16.3239 0 36.4605V127.54C0 147.676 16.3239 164 36.4605 164H127.54C147.676 164 164 147.676 164 127.54V36.4605C164 16.3239 147.676 0 127.54 0Z" fill="url(#paint0_linear_2101_5772)"/>
<path d="M41.6843 63.3374C71.7066 67.0123 93.127 94.1775 89.6332 124.105C89.6332 124.201 89.6332 124.321 89.6091 124.417C89.6091 124.513 89.6091 124.585 89.5609 124.681C88.9345 129.629 87.6574 134.337 85.8503 138.732C73.8992 137.267 63.3215 132.103 55.1293 124.489C55.7316 123.024 56.2617 121.511 56.7195 119.974C57.6351 116.995 58.2857 113.873 58.6953 110.678C59.1772 106.787 59.2254 102.944 58.8881 99.1974C57.6833 85.4587 51.2982 72.9209 41.5156 63.8418C41.5638 63.6737 41.6361 63.5295 41.7084 63.3614L41.6843 63.3374Z" fill="url(#paint1_linear_2101_5772)"/>
<path d="M122.836 100.662C92.8138 96.9875 71.3934 69.8223 74.8872 39.895C74.8872 39.7989 74.8872 39.6788 74.9113 39.5827C74.9113 39.4867 74.9113 39.4146 74.9595 39.3185C75.586 34.3707 76.863 29.663 78.6701 25.2676C90.6212 26.7327 101.199 31.8968 109.391 39.5107C108.789 40.9758 108.259 42.489 107.801 44.0262C106.885 47.0045 106.235 50.127 105.825 53.3215C105.343 57.2125 105.295 61.0555 105.632 64.8024C106.837 78.5412 113.222 91.0789 123.005 100.158C122.957 100.326 122.884 100.47 122.812 100.638L122.836 100.662Z" fill="url(#paint2_linear_2101_5772)"/>
<path d="M122.836 100.662C92.8138 96.9876 71.3934 69.8224 74.8872 39.895C81.5615 51.4961 92.4042 60.5511 105.632 64.8265C108.933 65.9073 112.403 66.6759 115.969 67.1083C119.222 67.4926 122.451 67.6126 125.607 67.4445C127.751 67.3244 129.848 67.0842 131.944 66.748C137.438 76.5476 139.968 88.1006 138.522 100.11C138.522 100.206 138.522 100.278 138.474 100.374C133.679 101.167 128.715 101.311 123.655 100.783C123.318 100.734 123.053 100.71 122.836 100.686V100.662Z" fill="white"/>
<path d="M41.6843 63.3373C71.7066 67.0121 93.127 94.1773 89.6332 124.105C82.9589 112.504 72.1162 103.449 58.8881 99.1732C55.5871 98.0924 52.1174 97.3238 48.5513 96.8914C45.2985 96.5071 42.0698 96.387 38.9134 96.5552C36.7689 96.6753 34.6727 96.9155 32.5764 97.2517C27.0828 87.4521 24.5528 75.8991 25.9985 63.8897C25.9985 63.7936 25.9985 63.7215 26.0467 63.6255C30.8416 62.8329 35.8051 62.6887 40.8651 63.2172C41.1542 63.2412 41.3951 63.2652 41.6843 63.3132V63.3373Z" fill="white"/>
<defs>
<linearGradient id="paint0_linear_2101_5772" x1="166.57" y1="-7.18162" x2="20.3679" y2="146.971" gradientUnits="userSpaceOnUse">
<stop offset="0.01" stop-color="#E9913E"/>
<stop offset="1" stop-color="#F20000"/>
</linearGradient>
<linearGradient id="paint1_linear_2101_5772" x1="41.3711" y1="142.911" x2="76.5682" y2="76.6473" gradientUnits="userSpaceOnUse">
<stop offset="0.19" stop-color="white"/>
<stop offset="0.4" stop-color="#FDFCFC" stop-opacity="0.99"/>
<stop offset="0.51" stop-color="#F9F4F5" stop-opacity="0.97"/>
<stop offset="0.6" stop-color="#F3E7E9" stop-opacity="0.93"/>
<stop offset="0.67" stop-color="#E9D4D7" stop-opacity="0.88"/>
<stop offset="0.74" stop-color="#DDBBC0" stop-opacity="0.81"/>
<stop offset="0.81" stop-color="#CE9CA4" stop-opacity="0.73"/>
<stop offset="0.87" stop-color="#BC7883" stop-opacity="0.63"/>
<stop offset="0.92" stop-color="#A84E5C" stop-opacity="0.51"/>
<stop offset="0.97" stop-color="#911F31" stop-opacity="0.38"/>
<stop offset="1" stop-color="#830317" stop-opacity="0.3"/>
</linearGradient>
<linearGradient id="paint2_linear_2101_5772" x1="135.076" y1="-27.1653" x2="82.0487" y2="112.951" gradientUnits="userSpaceOnUse">
<stop offset="0.19" stop-color="white"/>
<stop offset="0.4" stop-color="#FDFCFC" stop-opacity="0.99"/>
<stop offset="0.51" stop-color="#F9F4F5" stop-opacity="0.97"/>
<stop offset="0.6" stop-color="#F3E7E9" stop-opacity="0.93"/>
<stop offset="0.67" stop-color="#E9D4D7" stop-opacity="0.88"/>
<stop offset="0.74" stop-color="#DDBBC0" stop-opacity="0.81"/>
<stop offset="0.81" stop-color="#CE9CA4" stop-opacity="0.73"/>
<stop offset="0.87" stop-color="#BC7883" stop-opacity="0.63"/>
<stop offset="0.92" stop-color="#A84E5C" stop-opacity="0.51"/>
<stop offset="0.97" stop-color="#911F31" stop-opacity="0.38"/>
<stop offset="1" stop-color="#830317" stop-opacity="0.3"/>
</linearGradient>
</defs>
</svg>
