<?xml version="1.0" encoding="UTF-8"?>
<svg id="uuid-c183ede4-41f5-4ca3-8ddc-a7bc90877194" data-name="uuid-7a911968-efca-4426-a1d4-e740d56cff6f" xmlns="http://www.w3.org/2000/svg" viewBox="0 0 456.14 605.38">
  <defs>
    <style>
      .uuid-4fd2b950-eef2-4707-af79-7101ce3e684e {
        fill: #333;
      }
    </style>
  </defs>
  <path class="uuid-4fd2b950-eef2-4707-af79-7101ce3e684e" d="m415.85.39c-1.02,6.92-2,13.85-3.06,20.77-1.11,7.27-2.2,14.55-3.47,21.79-1.55,8.86-2.36,17.82-4.16,26.66-1.38,6.75-1.97,13.66-3.01,20.48-1.37,9-3.06,17.95-4.19,26.98-1.05,8.36-2.35,16.68-3.72,24.99-1.71,10.36-2.97,20.79-4.86,31.13-1.39,7.6-1.51,15.47-3.23,22.98-1.42,6.2,1.44,8.46,6.01,11.57,17.97,12.25,35.79,24.75,54.2,36.29,7.32,4.59,9.55,9.48,9.52,17.98-.25,75.61.04,151.22.26,226.83,0,2.51-.6,4-2.77,5.45-22.09,14.71-44.06,29.58-66.11,44.35-29.52,19.78-59.1,39.47-88.56,59.33-3.26,2.2-6.6,4.33-9.7,6.75-1.38,1.08-1.66.57-2.19-.59-4.91-10.65-9.86-21.28-14.76-31.94-3.24-7.06-6.31-14.2-9.62-21.22-7.07-15.05-13.96-30.19-20.93-45.29-4.68-10.14-9.4-20.26-14.1-30.38-.39-.84-.44-2.27-1.94-2.12-1.21.12-1.16,1.35-1.5,2.11-3.95,8.72-7.56,17.6-11.79,26.17-4.03,8.17-7.69,16.52-11.59,24.74-2.52,5.31-5.27,10.52-7.51,15.95-3.44,8.31-7.41,16.38-11.12,24.55-4,8.82-8.28,17.53-12.19,26.39-1.62,3.68-4.22,6.92-4.97,11.04-.36,1.97-1.88,1.17-3.04.56-8.58-4.55-17.17-9.08-25.73-13.66-9.82-5.25-19.58-10.61-29.44-15.78-11.6-6.08-23.05-12.43-34.74-18.36-9.54-4.85-18.86-10.21-28.38-15.17-8.01-4.17-15.73-8.89-23.74-13.04-2.28-1.18-2.18-2.68-2.18-4.56,0-48.05-.06-96.1.12-144.15.02-4.56-1.56-6.74-7.23-5.07-3.39,1-6.7,2.24-10.36,3.48v-3.83c0-33.67.04-67.34-.07-101.02,0-2.7.71-4.34,3.03-5.75,5.06-3.07,9.89-6.54,14.97-9.58,1.54-.92,1.84-1.91,1.83-3.43-.04-6.23.08-12.46-.06-18.69-.06-2.51.64-4.03,2.92-5.43,12.7-7.75,25.24-15.77,37.9-23.61,13.73-8.5,27.54-16.88,41.29-25.35,1.48-.91,2.55-2.48,4.96-2.75,0,5.76.17,11.44-.06,17.11-.15,3.54.93,3.43,3.49,1.95,10.56-6.1,21.21-12.04,31.76-18.16,1.42-.83,2.36-1.03,3.8-.14,20.81,12.9,41.64,25.77,62.5,38.59,8.17,5.02,16.5,9.8,24.6,14.93,1.64,1.04,2.21.61,2.89-.6,3.26-5.79,6.45-11.62,9.72-17.4,7.52-13.3,15.12-26.57,22.57-39.91,1.28-2.3,1.76-4.63,1.28-7.67-1.26-7.98-2.41-15.98-3.83-23.94-.2-1.15.24-1.99,1.07-2.83,7.56-7.56,15.31-14.91,23.37-21.94,2.16-1.88,3.97-4.15,6.04-6.13,10.85-10.36,21.63-20.78,32.63-30.98,8.89-8.25,17.64-16.64,26.45-24.97,8.99-8.49,18.1-16.84,26.9-25.54,7.55-7.47,15.25-14.78,22.95-22.1,3.32-3.16,6.8-6.15,10.2-9.21.23.14.45.27.68.41v-.02Zm-40.3,76.05c-1.69.24-2.35,1.33-3.18,2.12-14.78,14.02-29.53,28.07-44.3,42.1-5.88,5.59-11.73,11.2-17.68,16.71-3.74,3.46-6.99,7.46-11.27,10.35-.84.57-1.21,1.21-.94,2.4,1.29,5.72,1.53,11.62,3.11,17.33.54,1.94,1.12,4.38-.11,6.52-2.78,4.83-5.41,9.73-7.97,14.67-7.08,13.63-14.33,27.18-21.59,40.72-5.18,9.66-10.53,19.24-15.75,28.88-4.26,7.87-7.91,16.07-12.56,23.75-1.65,2.71-2.96,5.63-4.42,8.46-3.46,6.7-6.88,13.41-10.39,20.09-1.27,2.41-2.29,2.7-3.84-.12-6.09-11-11.4-22.42-18-33.15-1.41-2.29-3.28-4.73-3.52-7.23-.86-9.04-1.22-18.13-1.52-27.21-.08-2.43-.69-3.8-2.94-5.01-13.61-7.32-27.11-14.83-40.66-22.26-4.69-2.57-9.38-5.12-14.42-7.87-.11.91-.21,1.34-.21,1.78,0,22.53,0,45.05-.05,67.58,0,2.1,1.01,3.33,2.63,4.24,6.27,3.52,12.55,7.02,18.84,10.5,3.28,1.82,6.18,3.67,8,7.43,3.21,6.64,6.54,13.24,10.05,19.72,6.49,11.96,12.19,24.31,18.75,36.22,1.15,2.09,1.24,3.72.05,5.92-8.28,15.26-16.32,30.66-24.6,45.93-10.55,19.46-20.35,39.33-31.57,58.43-1.4,2.38-2.17,4.89-2.16,7.78.09,25.52.05,51.05.06,76.57v3.02c.21.05.43.1.64.15,26.56-50.62,53.12-101.25,80.16-152.77,26.48,51.6,52.51,102.33,78.61,153.2,1-.94.76-1.7.76-2.38.02-30.8,0-61.59.04-92.39,0-1.63-.5-2.97-1.27-4.38-11.73-21.47-22.93-43.24-35.15-64.46-5.93-10.3-10.94-21.14-16.67-31.56-1.63-2.97-1.8-4.93-.11-8.1,15.32-28.68,30.34-57.51,45.45-86.3,12.19-23.23,24.4-46.44,36.54-69.69.72-1.37,1.56-2.17,3.03-2.62,6.37-1.93,12.64-4.22,19.09-5.83,2.92-.73,3.42-2.49,3.79-4.72,1.29-7.77,2.47-15.56,3.79-23.32,1.78-10.45,3.68-20.87,5.49-31.31,1.88-10.81,3.79-21.61,5.53-32.44.92-5.74,2.24-11.45,2.42-17.44h.02ZM74.21,234.3c-10.54,6.17-20.36,11.99-30.26,17.67-1.71.98-2.25,2.13-2.22,4.02.1,5.51-.05,11.03.08,16.54.05,2.03-.58,3.29-2.34,4.37-4.49,2.77-8.83,5.75-13.26,8.62-1.24.8-2.23,1.54-2.23,3.32.06,16.42.04,32.84.03,49.25,0,1.74.31,2.42,2.31,1.49,3.85-1.78,7.89-3.12,11.78-4.81,3.7-1.6,3.66-1.7,3.66,2.46v110.37c0,20.85,0,41.7-.02,62.55,0,2.05.3,3.21,2.64,4.22,8.53,3.68,16.9,7.75,25.23,11.88,4.62,2.29,4.65,2.42,4.65-2.54v-199.17c0-.96.08-1.92-.02-2.87-.16-1.68.49-2.56,2.11-3.2,4.16-1.67,8.25-3.53,12.33-5.39,4.34-1.98,4.47-1.93,4.47,2.81,0,54.77,0,109.53.01,164.3,0,17.98.04,35.95-.04,53.93-.01,2.39.44,3.76,2.96,4.81,10.2,4.26,20.25,8.9,30.38,13.33,4.69,2.05,4.72,1.98,4.72-3.3,0-108.81,0-217.62,0-326.43,0-.96,0-1.92,0-2.88.02-2.02-.86-2.25-2.42-1.27-3.78,2.36-7.63,4.62-11.36,7.05-14.26,9.28-28.5,18.62-43.21,28.24v-19.36h0Zm316.24,1.57v45.98c0,51.88,0,103.77.04,155.65,0,2.16-.17,4.04-2.26,5.16-10.56,5.66-20.8,11.86-31.07,18.02-1.78,1.07-3.63,2.49-6.1,2.5v-4.17c0-27.08-.05-54.16.09-81.24.02-3.22-.86-4.01-4-3.94-9.58.21-19.18.24-28.75-.02-3.46-.09-4.07,1.07-4.06,4.23.09,57.28.07,114.55.1,171.83,0,1.14-.34,2.35.49,3.71,4.99-3.18,9.97-6.23,14.84-9.47,31.08-20.65,62.12-41.36,93.2-62,2.87-1.9,4.24-4.02,4.23-7.77-.14-68.9-.1-137.8-.11-206.7,0-1.31.21-2.72-.18-3.92-.65-1.98.35-4.28-2.25-5.95-11.24-7.2-22.18-14.85-34.22-21.91h0Zm-21.85,64.05c0-18.57-.04-37.13.05-55.7.01-2.33-.73-3.68-2.68-4.93-9.08-5.81-18.11-11.7-27.03-17.74-2.25-1.52-3.15-1.4-4.44,1.11-5.47,10.64-11.24,21.12-16.78,31.72-1.52,2.91-3.39,5.64-3.38,9.26.1,30.55.09,61.09,0,91.64,0,2.8.7,3.64,3.57,3.61,15.69-.17,31.38-.21,47.08-.08,3.15.03,3.7-1.07,3.68-3.91-.12-18.33-.06-36.65-.06-54.98h-.01Z"/>
</svg>